<svg fill="#25D366" xmlns="http://www.w3.org/2000/svg" viewBox="0 0 32 32">
  <path d="M16.001 3.2c-7.064 0-12.8 5.736-12.8 12.8 0 2.256.592 4.424 1.728 6.36L3.2 28.8l6.608-1.688A12.73 12.73 0 0 0 16 28.8c7.064 0 12.8-5.736 12.8-12.8s-5.736-12.8-12.8-12.8zm0 23.2c-2.112 0-4.168-.568-5.968-1.632l-.424-.248-3.92 1 1.04-3.824-.272-.392A10.3 10.3 0 0 1 5.6 16c0-5.76 4.64-10.4 10.4-10.4s10.4 4.64 10.4 10.4-4.64 10.4-10.4 10.4zm5.936-7.36c-.328-.168-1.936-.952-2.24-1.064-.304-.112-.528-.168-.752.168-.224.336-.864 1.064-1.056 1.288-.192.224-.384.256-.712.088-.328-.168-1.392-.512-2.648-1.632-.976-.872-1.632-1.952-1.824-2.28-.192-.328-.02-.504.148-.672.152-.152.328-.384.496-.576.168-.192.224-.336.336-.56.112-.224.056-.42-.028-.584-.084-.168-.752-1.808-1.032-2.48-.272-.656-.544-.568-.752-.568h-.64c-.224 0-.584.084-.888.42-.304.336-1.168 1.144-1.168 2.784 0 1.64 1.184 3.224 1.344 3.448.168.224 2.32 3.536 5.584 4.952 3.264 1.416 3.264.944 3.856.896.592-.048 1.936-.784 2.208-1.544.272-.76.272-1.408.192-1.544-.08-.136-.296-.216-.624-.384z"/>
</svg>
